simulation
nRows=44
nColumns=15
endheader
time  TH_x TH_y TH_z SC_y  SC_z  SC_x  AC_y  AC_z  AC_x  GH_y  GH_z  GH_yy  EL_x  PS_y
0.000000  0.000000  0.000000  0.000000  -31.466709  1.023896  7.884076  51.470676  7.645409  -8.194353  47.761940  9.635544  -16.198966  22.274170  0.000000
0.010000  0.000000  0.000000  0.000000  -31.428103  0.866268  7.633579  51.576535  7.163389  -8.304853  47.408391  9.583171  -16.061148  22.286366  0.000000
0.020000  0.000000  0.000000  0.000000  -31.390655  0.714165  7.392966  51.680016  6.698034  -8.411167  47.057438  9.544290  -15.927568  22.297266  0.000000
0.030000  0.000000  0.000000  0.000000  -31.354353  0.567503  7.162070  51.781151  6.249116  -8.513349  46.709080  9.518672  -15.798181  22.306889  0.000000
0.040000  0.000000  0.000000  0.000000  -31.319185  0.426199  6.940727  51.879974  5.816411  -8.611452  46.363314  9.506088  -15.672937  22.315256  0.000000
0.050000  0.000000  0.000000  0.000000  -31.285139  0.290172  6.728773  51.976516  5.399692  -8.705532  46.020140  9.506310  -15.551790  22.322384  0.000000
0.060000  0.000000  0.000000  0.000000  -31.252203  0.159339  6.526046  52.070810  4.998738  -8.795640  45.679555  9.519112  -15.434694  22.328295  0.000000
0.070000  0.000000  0.000000  0.000000  -31.220366  0.033618  6.332384  52.162888  4.613326  -8.881832  45.341557  9.544270  -15.321601  22.333006  0.000000
0.080000  0.000000  0.000000  0.000000  -31.189616  -0.087071  6.147626  52.252780  4.243235  -8.964159  45.006144  9.581561  -15.212464  22.336538  0.000000
0.090000  0.000000  0.000000  0.000000  -31.159941  -0.202809  5.971614  52.340519  3.888247  -9.042674  44.673315  9.630761  -15.107239  22.338909  0.000000
0.100000  0.000000  0.000000  0.000000  -31.131329  -0.313675  5.804189  52.426136  3.548141  -9.117430  44.343067  9.691651  -15.005877  22.340138  0.000000
0.110000  0.000000  0.000000  0.000000  -31.103768  -0.419750  5.645195  52.509662  3.222702  -9.188479  44.015399  9.764010  -14.908334  22.340244  0.000000
0.120000  0.000000  0.000000  0.000000  -31.077248  -0.521111  5.494474  52.591127  2.911714  -9.255872  43.690307  9.847622  -14.814564  22.339245  0.000000
0.130000  0.000000  0.000000  0.000000  -31.051756  -0.617837  5.351872  52.670563  2.614961  -9.319662  43.367790  9.942268  -14.724521  22.337161  0.000000
0.140000  0.000000  0.000000  0.000000  -31.027281  -0.710007  5.217236  52.748000  2.332232  -9.379900  43.047846  10.047734  -14.638159  22.334010  0.000000
0.150000  0.000000  0.000000  0.000000  -31.003811  -0.797697  5.090412  52.823467  2.063312  -9.436637  42.730471  10.163807  -14.555434  22.329810  0.000000
0.160000  0.000000  0.000000  0.000000  -30.981335  -0.880984  4.971249  52.896996  1.807993  -9.489923  42.415664  10.290272  -14.476300  22.324579  0.000000
0.170000  0.000000  0.000000  0.000000  -30.959841  -0.959945  4.859596  52.968616  1.566063  -9.539809  42.103423  10.426918  -14.400713  22.318336  0.000000
0.180000  0.000000  0.000000  0.000000  -30.939317  -1.034656  4.755303  53.038356  1.337315  -9.586345  41.793744  10.573536  -14.328628  22.311099  0.000000
0.190000  0.000000  0.000000  0.000000  -30.919754  -1.105192  4.658223  53.106246  1.121541  -9.629582  41.486624  10.729917  -14.260001  22.302886  0.000000
0.200000  0.000000  0.000000  0.000000  -30.901138  -1.171627  4.568207  53.172315  0.918535  -9.669569  41.182063  10.895854  -14.194788  22.293714  0.000000
0.210000  0.000000  0.000000  0.000000  -30.883459  -1.234037  4.485110  53.236593  0.728094  -9.706355  40.880055  11.071140  -14.132944  22.283602  0.000000
0.220000  0.000000  0.000000  0.000000  -30.866706  -1.292494  4.408786  53.299107  0.550012  -9.739989  40.580600  11.255571  -14.074425  22.272567  0.000000
0.230000  0.000000  0.000000  0.000000  -30.850866  -1.347072  4.339091  53.359888  0.384088  -9.770521  40.283693  11.448943  -14.019189  22.260627  0.000000
0.240000  0.000000  0.000000  0.000000  -30.835930  -1.397845  4.275882  53.418962  0.230121  -9.797998  39.989332  11.651055  -13.967191  22.247800  0.000000
0.250000  0.000000  0.000000  0.000000  -30.821885  -1.444884  4.219017  53.476358  0.087911  -9.822470  39.697514  11.861706  -13.918388  22.234102  0.000000
0.260000  0.000000  0.000000  0.000000  -30.808721  -1.488260  4.168355  53.532105  -0.042740  -9.843983  39.408236  12.080696  -13.872738  22.219551  0.000000
0.270000  0.000000  0.000000  0.000000  -30.796427  -1.528047  4.123756  53.586229  -0.162030  -9.862587  39.121495  12.307827  -13.830197  22.204164  0.000000
0.280000  0.000000  0.000000  0.000000  -30.784991  -1.564313  4.085083  53.638759  -0.270155  -9.878327  38.837287  12.542903  -13.790723  22.187958  0.000000
0.290000  0.000000  0.000000  0.000000  -30.774402  -1.597130  4.052196  53.689722  -0.367310  -9.891253  38.555610  12.785729  -13.754273  22.170950  0.000000
0.300000  0.000000  0.000000  0.000000  -30.764650  -1.626567  4.024959  53.739145  -0.453688  -9.901409  38.276460  13.036110  -13.720805  22.153158  0.000000
0.310000  0.000000  0.000000  0.000000  -30.755722  -1.652693  4.003238  53.787056  -0.529481  -9.908844  37.999834  13.293854  -13.690277  22.134597  0.000000
0.320000  0.000000  0.000000  0.000000  -30.747610  -1.675578  3.986897  53.833480  -0.594882  -9.913603  37.725728  13.558770  -13.662648  22.115285  0.000000
0.330000  0.000000  0.000000  0.000000  -30.740300  -1.695289  3.975804  53.878444  -0.650079  -9.915733  37.454138  13.830667  -13.637874  22.095238  0.000000
0.340000  0.000000  0.000000  0.000000  -30.733784  -1.711894  3.969825  53.921976  -0.695262  -9.915278  37.185063  14.109357  -13.615916  22.074473  0.000000
0.350000  0.000000  0.000000  0.000000  -30.728049  -1.725461  3.968831  53.964100  -0.730617  -9.912286  36.918496  14.394653  -13.596731  22.053005  0.000000
0.360000  0.000000  0.000000  0.000000  -30.723085  -1.736055  3.972691  54.004843  -0.756331  -9.906800  36.654436  14.686369  -13.580279  22.030851  0.000000
0.370000  0.000000  0.000000  0.000000  -30.718881  -1.743744  3.981275  54.044231  -0.772590  -9.898866  36.392878  14.984319  -13.566518  22.008028  0.000000
0.380000  0.000000  0.000000  0.000000  -30.715427  -1.748593  3.994457  54.082290  -0.779576  -9.888529  36.133819  15.288322  -13.555408  21.984551  0.000000
0.390000  0.000000  0.000000  0.000000  -30.712711  -1.750668  4.012108  54.119043  -0.777473  -9.875833  35.877255  15.598194  -13.546909  21.960436  0.000000
0.400000  0.000000  0.000000  0.000000  -30.710723  -1.750032  4.034105  54.154518  -0.766461  -9.860822  35.623181  15.913755  -13.540979  21.935699  0.000000
0.410000  0.000000  0.000000  0.000000  -30.709453  -1.746750  4.060321  54.188738  -0.746720  -9.843540  35.371594  16.234827  -13.537579  21.910357  0.000000
0.420000  0.000000  0.000000  0.000000  -30.708890  -1.740887  4.090633  54.221728  -0.718430  -9.824031  35.122490  16.561230  -13.536670  21.884423  0.000000
0.430000  0.000000  0.000000  0.000000  -30.709023  -1.732504  4.124920  54.253514  -0.681768  -9.802338  34.875864  16.892790  -13.538210  21.857915  0.000000
